<svg xmlns="http://www.w3.org/2000/svg" viewBox="0 0 31.21 31.21"><defs><style>.cls-1{fill:#fff;}</style></defs><g id="Layer_2" data-name="Layer 2"><g id="Layer_1-2" data-name="Layer 1"><path class="cls-1" d="M15.6,0A15.61,15.61,0,1,1,0,15.62,15.63,15.63,0,0,1,15.6,0ZM29.85,15.61A14.25,14.25,0,1,0,15.6,29.84,14.27,14.27,0,0,0,29.85,15.61Z"/><path class="cls-1" d="M16,19a8.68,8.68,0,0,1,6.14,2.82.71.71,0,0,1,.08,1,.68.68,0,0,1-1-.09,7.23,7.23,0,0,0-3.1-2,7.43,7.43,0,0,0-7.62,1.66c-.12.1-.23.23-.34.34a.71.71,0,0,1-1.05.1.72.72,0,0,1,.08-1.05,8.85,8.85,0,0,1,2.63-1.94A9.61,9.61,0,0,1,16,19Z"/><path class="cls-1" d="M10.18,14.94A3.41,3.41,0,0,1,6.8,11.75c0-.5.18-.83.58-.88s.73.22.76.74a2,2,0,0,0,3.06,1.67,2,2,0,0,0,1-1.51c0-.12,0-.24.06-.36a.61.61,0,0,1,.73-.53.62.62,0,0,1,.58.67,3.27,3.27,0,0,1-1,2.43A3.47,3.47,0,0,1,10.18,14.94Z"/><path class="cls-1" d="M21.09,14.94a3.44,3.44,0,0,1-3.44-3.22.75.75,0,0,1,.41-.81.65.65,0,0,1,.89.45c.07.26.09.53.16.79A2,2,0,0,0,23,11.91c0-.13,0-.27.05-.4a.68.68,0,1,1,1.35.1,3.22,3.22,0,0,1-.63,1.89A3.43,3.43,0,0,1,21.09,14.94Z"/></g></g></svg>