<svg xmlns="http://www.w3.org/2000/svg" viewBox="0 0 41.64 27.35"><defs><style>.cls-1{fill:#fff;}</style></defs><g id="Layer_2" data-name="Layer 2"><g id="Layer_1-2" data-name="Layer 1"><path class="cls-1" d="M41.64,20a13,13,0,0,1-.71,4.68,3.86,3.86,0,0,1-5.24,2.35,14.54,14.54,0,0,1-4.09-2.28A24.12,24.12,0,0,1,29,22.64,9.67,9.67,0,0,0,23.38,20a15.85,15.85,0,0,0-7.64.63,8.36,8.36,0,0,0-2.88,1.79,27.57,27.57,0,0,1-5.33,4,7.26,7.26,0,0,1-2.86.94A3.76,3.76,0,0,1,.76,24.94,10.24,10.24,0,0,1,0,20.75,35.54,35.54,0,0,1,2.8,6.51,12.42,12.42,0,0,1,6.52,1.4a6.81,6.81,0,0,1,5-1.34,37,37,0,0,1,4.77,1c1.11.25,2.22.49,3.33.71A10.74,10.74,0,0,0,24,1.35c1.92-.4,3.8-1,5.75-1.26a7.24,7.24,0,0,1,7.2,3.12A20.16,20.16,0,0,1,40,9.68,37.52,37.52,0,0,1,41.64,20ZM1.91,19.64a12.84,12.84,0,0,0,.48,4.2A2,2,0,0,0,4.9,25.3a6.38,6.38,0,0,0,1.71-.63,24.66,24.66,0,0,0,5-3.76A10.46,10.46,0,0,1,14.74,19a17.08,17.08,0,0,1,9.12-.83,11.06,11.06,0,0,1,6.31,3.08,21.38,21.38,0,0,0,2.54,2.11,10.2,10.2,0,0,0,4.12,2.09,1.79,1.79,0,0,0,2.12-1,8.52,8.52,0,0,0,.75-4,35.22,35.22,0,0,0-1.56-10.24,17.68,17.68,0,0,0-2.6-5.56A5.85,5.85,0,0,0,29.73,2a32,32,0,0,0-4.45,1,15,15,0,0,1-8.22.17c-1.45-.42-2.94-.74-4.42-1A5.91,5.91,0,0,0,6.81,3.74,11.48,11.48,0,0,0,4.7,7,33.27,33.27,0,0,0,1.91,19.64Z"/><path class="cls-1" d="M11.16,5.18a3,3,0,0,1,2.93,2.34.51.51,0,0,0,.46.48,3,3,0,0,1,2.36,3,3,3,0,0,1-2.44,2.89c-.34.07-.33.26-.38.49a3.09,3.09,0,0,1-2.85,2.33,3,3,0,0,1-2.88-1.91,1.23,1.23,0,0,0-1-1,2.93,2.93,0,0,1-2-3A3,3,0,0,1,7.66,8a.63.63,0,0,0,.6-.59A3,3,0,0,1,11.16,5.18Zm0,9.58a1,1,0,0,0,1.06-.95c0-.21,0-.43,0-.65A1,1,0,0,1,13.32,12a6.26,6.26,0,0,0,.87,0,1,1,0,0,0,.86-1.13,1,1,0,0,0-1-1c-.23,0-.47,0-.7,0a1.06,1.06,0,0,1-1.13-1.11c0-.26,0-.51,0-.76A1,1,0,0,0,11.09,7a1.05,1.05,0,0,0-1,1c0,.25,0,.51,0,.76a1,1,0,0,1-.87,1c-.24,0-.5,0-.75,0-.74,0-1.18.43-1.18,1.05a1.07,1.07,0,0,0,1.2,1c1.38,0,1.57.22,1.6,1.61a1.83,1.83,0,0,0,0,.33A1.05,1.05,0,0,0,11.17,14.76Z"/><path class="cls-1" d="M29.86,9A1.76,1.76,0,0,1,28,7.28a1.8,1.8,0,0,1,1.79-1.85,1.84,1.84,0,0,1,1.83,1.82A1.81,1.81,0,0,1,29.86,9Z"/><path class="cls-1" d="M33.55,12.74a1.81,1.81,0,1,1,1.78-1.81A1.82,1.82,0,0,1,33.55,12.74Z"/><path class="cls-1" d="M29.81,16.42A1.79,1.79,0,0,1,28,14.61a1.77,1.77,0,0,1,1.83-1.8,1.81,1.81,0,0,1,1.79,1.8A1.83,1.83,0,0,1,29.81,16.42Z"/><path class="cls-1" d="M26.15,12.73a1.81,1.81,0,1,1,0-3.61A1.83,1.83,0,0,1,28,11,1.81,1.81,0,0,1,26.15,12.73Z"/></g></g></svg>