<svg xmlns="http://www.w3.org/2000/svg" viewBox="0 0 131.38 216.72"><defs><style>.cls-1{fill:#c5ecf4;}.cls-2{fill:#2a6755;}.cls-3{fill:#1e4e4e;}</style></defs><g id="Layer_2" data-name="Layer 2"><g id="Layer_1-2" data-name="Layer 1"><path class="cls-1" d="M5.18,33.73,61,1.4a10.39,10.39,0,0,1,10.49,0l54.82,32.28a10.39,10.39,0,0,1,5.12,9V172.18a10.41,10.41,0,0,1-4.91,8.83l-55,34.15a10.41,10.41,0,0,1-10.69.17L5.19,183.16a10.39,10.39,0,0,1-5.19-9V42.72A10.39,10.39,0,0,1,5.18,33.73Z"/><path class="cls-2" d="M11.13,91v79.27l56.15,33.19,55.15-32.53L123.1,91s-16.35,24-22.46,35.51-8.1,13.37-11.23,23.78-1.32,16.34-1.32,16.34l7.43.5L67.28,191.52,37.22,167.91,47,166.58s1-2-1.49-15.52S11.13,91,11.13,91Z"/><path class="cls-3" d="M18.56,40.12s-3.3,10.4,1.82,28.4,17.67,35.18,22.29,44.75,11,20.65,14.7,31.87c2.73,8.34,2.31,18.67,2.31,18.67H53.74l13.37,12.88V93l-5.77,5.78-6.11-3.1V84.37l-6.11-8.75L48.5,91.76l-4.88-4.7.05-17.59-7.52-8.63L35.9,81.15,30,72.57,30,53.82Z"/><path class="cls-3" d="M115.66,40.12s3.3,10.4-1.81,28.4-17.67,35.18-22.3,44.75-11,20.65-14.7,31.87c-2.72,8.34-2.31,18.67-2.31,18.67h5.95L67.11,176.69V93l5.78,5.78L79,95.64V84.37l6.11-8.75.62,16.14,4.87-4.7,0-17.59,7.51-8.63.25,20.31,6-8.58-.09-18.75Z"/><path class="cls-3" d="M46.18,66.68S53.94,74.85,58,81.21,67.25,98,67.25,98L67.11,52,60.8,56.61a25.65,25.65,0,0,1,2.35,5.82c.74,3,1.78,17.71,1.78,17.71S61.29,70.44,58.77,66L55,59.33Z"/><path class="cls-3" d="M88,66.68s-7.76,8.17-11.8,14.53-9,16.85-9,16.85l-.14-46,6.32,4.59a25.65,25.65,0,0,0-2.35,5.82c-.75,3-1.78,17.71-1.78,17.71s3.63-9.7,6.15-14.16l3.76-6.65Z"/></g></g></svg>