<svg xmlns="http://www.w3.org/2000/svg" viewBox="0 0 31.27 32.11"><defs><style>.cls-1{fill:#fff;}</style></defs><g id="Layer_2" data-name="Layer 2"><g id="Layer_1-2" data-name="Layer 1"><path class="cls-1" d="M4.6,4.65a6.16,6.16,0,0,1,1.62.57c.69.25,1.37.53,2.05.82a.45.45,0,0,0,.5,0,7.65,7.65,0,0,1,1.43-.84.77.77,0,0,0,.5-.69q.2-1.53.42-3.06A1.45,1.45,0,0,1,12.72,0h5.85a1.44,1.44,0,0,1,1.58,1.38c.16,1.08.31,2.15.46,3.23a.53.53,0,0,0,.33.47A9.15,9.15,0,0,1,22.49,6,.48.48,0,0,0,23,6c1-.42,2.06-.83,3.09-1.24A1.43,1.43,0,0,1,28,5.44c1,1.7,2,3.4,2.95,5.1a1.46,1.46,0,0,1-.43,2.12c-.85.67-1.7,1.34-2.57,2a.46.46,0,0,0-.2.45,8.44,8.44,0,0,1,0,1.88.45.45,0,0,0,.21.45c.86.66,1.71,1.34,2.57,2A1.47,1.47,0,0,1,31,21.57c-1,1.67-1.93,3.35-2.91,5a1.44,1.44,0,0,1-2,.69l-3-1.21a.47.47,0,0,0-.53.06,7.32,7.32,0,0,1-1.4.82.76.76,0,0,0-.51.71c-.13,1-.28,2-.43,3.06a1.43,1.43,0,0,1-1.58,1.38H12.68a1.43,1.43,0,0,1-1.55-1.36c-.15-1-.31-2-.43-3.06a.79.79,0,0,0-.53-.74,7.22,7.22,0,0,1-1.37-.8.51.51,0,0,0-.57-.06c-1,.43-2.06.83-3.09,1.24a1.44,1.44,0,0,1-1.9-.64l-3-5.13a1.46,1.46,0,0,1,.42-2.09c.85-.66,1.69-1.33,2.54-2a.53.53,0,0,0,.25-.55,7.32,7.32,0,0,1,0-1.75.55.55,0,0,0-.25-.56c-.85-.64-1.69-1.31-2.54-2a1.46,1.46,0,0,1-.42-2.09c1-1.71,2-3.42,3-5.13A1.49,1.49,0,0,1,4.6,4.65Zm11,6A5.35,5.35,0,1,0,21,16,5.39,5.39,0,0,0,15.62,10.7Z"/></g></g></svg>