<svg xmlns="http://www.w3.org/2000/svg" viewBox="0 0 36.91 35.8"><defs><style>.cls-1{fill:#fff;}</style></defs><g id="Layer_2" data-name="Layer 2"><g id="Layer_1-2" data-name="Layer 1"><path class="cls-1" d="M10.91,18.19A9.4,9.4,0,1,1,23.64,4.38a9.44,9.44,0,0,1-.42,13.78c.76.38,1.54.71,2.27,1.15A16.84,16.84,0,0,1,34.1,34,1.64,1.64,0,0,1,33,35.72,1.62,1.62,0,0,1,31,35a2.89,2.89,0,0,1-.28-1.2,13.44,13.44,0,0,0-7.29-11.77A13.67,13.67,0,0,0,4.39,28.91a14.33,14.33,0,0,0-1,5.05A1.69,1.69,0,1,1,0,33.9,17.13,17.13,0,0,1,10.58,18.35ZM17,17.06a6,6,0,1,0-6-6A6,6,0,0,0,17,17.06Z"/><path class="cls-1" d="M33.56,3.34h1.52A1.7,1.7,0,0,1,36.91,5a1.67,1.67,0,0,1-1.79,1.69H33.56c0,.57,0,1.07,0,1.57a1.68,1.68,0,1,1-3.35,0c0-.49,0-1,0-1.56-.62,0-1.2,0-1.79,0a1.64,1.64,0,0,1-1.5-1.18,1.57,1.57,0,0,1,.56-1.78,3.07,3.07,0,0,1,1.16-.39,13.22,13.22,0,0,1,1.41,0,.67.67,0,0,0,.16-.06c0-.47,0-1,0-1.48A1.67,1.67,0,0,1,31.86,0a1.69,1.69,0,0,1,1.7,1.8C33.57,2.29,33.56,2.77,33.56,3.34Z"/></g></g></svg>