<svg xmlns="http://www.w3.org/2000/svg" viewBox="0 0 22.37 26.54"><defs><style>.cls-1{fill:#39b54a;}.cls-2{fill:#00a14b;}.cls-3{fill:#fff;}</style></defs><g id="Layer_2" data-name="Layer 2"><g id="Layer_1-2" data-name="Layer 1"><path class="cls-1" d="M22.36,9.12c0,1.19,0,2.38,0,3.58a14.54,14.54,0,0,1-3.21,8.76,14.82,14.82,0,0,1-7.35,5,1.9,1.9,0,0,1-1.18,0,14.85,14.85,0,0,1-6.45-3.93,14.57,14.57,0,0,1-4-7.9A14.41,14.41,0,0,1,0,12.34q0-3.6,0-7.22c0-.24.05-.36.31-.38a19.8,19.8,0,0,0,9.82-4c.26-.19.53-.36.78-.57a.38.38,0,0,1,.56,0,29.06,29.06,0,0,0,3.09,2.11,18.46,18.46,0,0,0,6.92,2.42c.88.13.88.11.88,1V9.12ZM2.85,10.25A24.18,24.18,0,0,0,3,14.33a12,12,0,0,0,7.31,9c.35.13.69.36,1.09.23a11.22,11.22,0,0,0,4-2.25,11.78,11.78,0,0,0,3.14-4.25,11.19,11.19,0,0,0,1-4.25c0-1.75,0-3.51,0-5.27,0-.29-.09-.4-.36-.46a19.18,19.18,0,0,1-4.71-1.68,19.43,19.43,0,0,1-2.9-1.75.54.54,0,0,0-.74,0A21.72,21.72,0,0,1,8.28,5.2,20.69,20.69,0,0,1,3.17,7.1a.35.35,0,0,0-.33.41C2.86,8.43,2.85,9.34,2.85,10.25Z"/><path class="cls-2" d="M2.85,10.25c0-.91,0-1.82,0-2.74a.35.35,0,0,1,.33-.41A20.69,20.69,0,0,0,8.28,5.2a21.72,21.72,0,0,0,2.54-1.54.54.54,0,0,1,.74,0,19.43,19.43,0,0,0,2.9,1.75,19.18,19.18,0,0,0,4.71,1.68c.27.06.36.17.36.46,0,1.76,0,3.52,0,5.27a11.19,11.19,0,0,1-1,4.25,11.78,11.78,0,0,1-3.14,4.25,11.22,11.22,0,0,1-4,2.25c-.4.13-.74-.1-1.09-.23a12,12,0,0,1-7.31-9A24.18,24.18,0,0,1,2.85,10.25Zm6.51,7.53c.05-.05.12-.09.18-.15s.4-.41.61-.61q2.7-2.73,5.42-5.43c.18-.18.2-.28,0-.46s-.62-.59-.91-.91-.32-.22-.54,0c-1.48,1.5-3,3-4.48,4.5-.26.26-.4.24-.62,0s-.58-.57-.85-.87-.24-.14-.39,0c-.33.35-.68.69-1,1-.13.13-.16.22,0,.36l2.41,2.4C9.21,17.7,9.26,17.77,9.36,17.78Z"/><path class="cls-3" d="M9.36,17.78c-.1,0-.15-.08-.21-.14l-2.41-2.4c-.15-.14-.12-.23,0-.36.35-.34.7-.68,1-1,.15-.15.24-.17.39,0s.59.56.85.87.36.27.62,0c1.49-1.51,3-3,4.48-4.5.22-.22.34-.23.54,0s.59.62.91.91.18.28,0,.46q-2.71,2.7-5.42,5.43c-.21.2-.41.41-.61.61S9.41,17.73,9.36,17.78Z"/></g></g></svg>