<svg xmlns="http://www.w3.org/2000/svg" viewBox="0 0 30.41 30.43"><defs><style>.cls-1{fill:#fff;}</style></defs><g id="Layer_2" data-name="Layer 2"><g id="Layer_1-2" data-name="Layer 1"><path class="cls-1" d="M7.15,28.6V27.34a3.3,3.3,0,0,1,3.49-3.47h1.3V22c0-.6,0-1.21,0-1.82a.78.78,0,0,0-.25-.47c-.47-.42-1-.83-1.45-1.22a1.2,1.2,0,0,0-.54-.27A8.33,8.33,0,0,1,4.4,15.51,15.64,15.64,0,0,1,.63,8.3a21.77,21.77,0,0,1-.63-5c0-.73.31-1.07,1-1.07H4.77V1.14C4.76.33,5.08,0,5.88,0H24.53c.81,0,1.12.33,1.11,1.14V2.21h3.81a.87.87,0,0,1,1,1,19.24,19.24,0,0,1-2.79,10.29,10,10,0,0,1-5.06,4.36c-.55.2-1.15.27-1.72.42a2.14,2.14,0,0,0-.71.35c-.48.36-.94.76-1.4,1.16a.64.64,0,0,0-.25.35c0,1.21,0,2.41,0,3.61a.5.5,0,0,0,.05.15h1.24a3.3,3.3,0,0,1,3.49,3.47V28.6l.3.08a.87.87,0,0,1,.64.89.88.88,0,0,1-.76.84,3.1,3.1,0,0,1-.43,0h-16a.88.88,0,0,1-.84-.81.87.87,0,0,1,.68-.94ZM6.57,1.81v.34a31.4,31.4,0,0,0,1.92,10.1,14.58,14.58,0,0,0,3,5.05A5.15,5.15,0,0,0,15,19.08a5,5,0,0,0,3.86-1.79,15.52,15.52,0,0,0,3.35-5.91,30.87,30.87,0,0,0,1.52-7.74c0-.6.06-1.2.09-1.83ZM9,28.61H21.47c0-.4,0-.77,0-1.14a1.62,1.62,0,0,0-1.8-1.83c-3,0-6,0-8.95,0h-.47A1.48,1.48,0,0,0,9,26.92C8.92,27.47,9,28,9,28.61ZM4.89,4h-3c0,.24,0,.45,0,.66A19.3,19.3,0,0,0,2.77,9.3a12.72,12.72,0,0,0,3.37,5.41,6.62,6.62,0,0,0,2.23,1.4A29,29,0,0,1,4.89,4ZM22.07,16.05h.16l.36-.16a9.69,9.69,0,0,0,4.1-4.37,17.65,17.65,0,0,0,1.89-6.93,5.8,5.8,0,0,0,0-.59h-3A28.92,28.92,0,0,1,22.07,16.05Zm-8.34,4.74v3.05h2.95V20.79Z"/></g></g></svg>