<svg xmlns="http://www.w3.org/2000/svg" viewBox="0 0 32.57 32.49"><defs><style>.cls-1{fill:#fff;}</style></defs><g id="Layer_2" data-name="Layer 2"><g id="Layer_1-2" data-name="Layer 1"><path class="cls-1" d="M7.55,21.22a7.41,7.41,0,0,1-2.06-2.86,7.16,7.16,0,0,1,5.64-9.73,5.51,5.51,0,0,1,1.9,0c.32.06.36,0,.32-.35A7.16,7.16,0,0,1,19.13.1,7.09,7.09,0,0,1,27.24,5a6.91,6.91,0,0,1-1.85,7.27l-.39.38A13.76,13.76,0,0,1,27.44,14,14,14,0,0,1,29.58,16a.31.31,0,0,1,0,.51c-.42.44-.83.89-1.22,1.36-.21.25-.33.27-.55,0a9.58,9.58,0,0,0-7.28-3.51c-.24,0-.48,0-.72,0-.61,0-.61,0-.55.6a7.15,7.15,0,0,1-5.37,7.78,12.47,12.47,0,0,1-2.44.25,9.59,9.59,0,0,0-8.3,6.27,9.84,9.84,0,0,0-.58,2.93c0,.26-.05.37-.35.36-.63,0-1.27,0-1.91,0-.23,0-.31-.06-.3-.31a12,12,0,0,1,2.77-7.39,11.85,11.85,0,0,1,4.47-3.4ZM25,7.16a4.63,4.63,0,1,0-4.63,4.62A4.63,4.63,0,0,0,25,7.16ZM7.52,15.7a4.63,4.63,0,1,0,4.65-4.61A4.63,4.63,0,0,0,7.52,15.7Z"/><path class="cls-1" d="M32.57,20.69c-.12.15-.17.23-.24.3q-5.07,5.66-10.15,11.32c-.16.17-.26.19-.44,0q-3.21-3.07-6.44-6.14c-.16-.15-.21-.24,0-.42.46-.46.92-.93,1.34-1.42.22-.25.33-.11.49,0,1.46,1.4,2.93,2.78,4.38,4.19.25.24.37.29.63,0,2.74-3.08,5.51-6.14,8.25-9.22.21-.23.34-.29.59,0,.44.44.92.84,1.38,1.25A2.36,2.36,0,0,0,32.57,20.69Z"/></g></g></svg>