<svg xmlns="http://www.w3.org/2000/svg" viewBox="0 0 38.68 31.21"><defs><style>.cls-1{opacity:0.31;}.cls-2{fill:#fff;}</style></defs><g id="Layer_2" data-name="Layer 2"><g id="Layer_1-2" data-name="Layer 1"><g class="cls-1"><path class="cls-2" d="M19.35,31.21H2.84A2.56,2.56,0,0,1,.29,29.76,3,3,0,0,1,0,28.5Q0,18.15,0,7.81A2.56,2.56,0,0,1,2.82,5.09c2.08,0,4.17,0,6.25,0a.77.77,0,0,0,.82-.46c.67-1.26,1.4-2.49,2.09-3.74A1.57,1.57,0,0,1,13.48,0H25.26a1.54,1.54,0,0,1,1.49.9c.69,1.27,1.4,2.52,2.09,3.79a.63.63,0,0,0,.66.4h6.19c2,0,3,1,3,3V28.23a2.64,2.64,0,0,1-3,3Zm.06-24a9.54,9.54,0,1,0,9.46,9.61A9.57,9.57,0,0,0,19.41,7.19Z"/><path class="cls-2" d="M24.1,16.76A4.76,4.76,0,1,1,19.38,12,4.74,4.74,0,0,1,24.1,16.76Z"/></g></g></g></svg>