<svg xmlns="http://www.w3.org/2000/svg" viewBox="0 0 26.34 40.61"><defs><style>.cls-1{fill:#fff;}</style></defs><g id="Layer_2" data-name="Layer 2"><g id="Layer_1-2" data-name="Layer 1"><path class="cls-1" d="M8.1,29.13v6.59c0,.81,0,.81.85.82.45,0,.89,0,1.33,0a1.92,1.92,0,0,1,1.88,2,1.89,1.89,0,0,1-1.86,2.06q-4.2,0-8.42,0a1.88,1.88,0,0,1-1.88-2,1.9,1.9,0,0,1,1.91-2c.59,0,1.19,0,1.78,0,.26,0,.39-.07.36-.35s0-.3,0-.45V2.28a2,2,0,0,1,3-2,1.87,1.87,0,0,1,1,2,.74.74,0,0,0,.55.83l16.65,7.38a1.74,1.74,0,0,1,1.05,1.79A1.77,1.77,0,0,1,25.27,14c-5.34,2.37-10.67,4.76-16,7.07a1.63,1.63,0,0,0-1.16,1.86C8.15,25,8.1,27.05,8.1,29.13Zm0-21.93c0,.23,0,.37,0,.51,0,3,0,6,0,8.93,0,.53.15.54.56.35l8.46-3.81,2.13-1Z"/></g></g></svg>