<svg xmlns="http://www.w3.org/2000/svg" viewBox="0 0 363.32 249.67"><defs><style>.cls-1{fill:#fff;}</style></defs><g id="Layer_2" data-name="Layer 2"><g id="Layer_1-2" data-name="Layer 1"><path class="cls-1" d="M182.07,85.11H355.14c8,0,8.05.07,8.05,7.82q0,57,0,113.94c0,26.26-16.54,42.79-42.81,42.79H42.81C16.58,249.66,0,233.1,0,206.86q0-57,0-113.94c0-7.75.07-7.81,8.06-7.81ZM73.84,158.92v0c-1.57,0-3.14,0-4.71,0-7.79.15-12.22,4.56-12.35,12.34-.06,3.46-.12,6.92,0,10.36.28,6.4,4.68,10.95,11,11.26a111.06,111.06,0,0,0,12.24,0A11.06,11.06,0,0,0,90.71,182.2a103.65,103.65,0,0,0,0-12.71A11.18,11.18,0,0,0,80,158.94C77.93,158.79,75.88,158.92,73.84,158.92Z" transform="translate(0)"/><path class="cls-1" d="M181.6,62.43H8.07c-8.06,0-8.17,0-8-8.28C.15,46.92-.15,39.59,1,32.49,3.76,14.44,19.29,1.05,37.61.08,38.87,0,40.13,0,41.39,0Q181.6,0,321.79,0C339.86,0,354,9.1,360.27,25.23c1.74,4.46,2.38,9.45,2.8,14.26.47,5.32.13,10.71.12,16.06,0,6.47-.43,6.88-7.1,6.88Z" transform="translate(0)"/></g></g></svg>