<svg xmlns="http://www.w3.org/2000/svg" viewBox="0 0 21.27 19.15"><defs><style>.cls-1{fill:#afee8f;}.cls-2{fill:#019045;}</style></defs><g id="Layer_2" data-name="Layer 2"><g id="Layer_1-2" data-name="Layer 1"><path class="cls-1" d="M15.32,6.73a6.76,6.76,0,0,1,1,2.63,8.08,8.08,0,0,1-2.48,7.58A7.73,7.73,0,0,1,9.4,19.07a8.06,8.06,0,0,1-7.18-2.53A7.79,7.79,0,0,1,.07,12,8.05,8.05,0,0,1,2.52,5,7.81,7.81,0,0,1,7.16,2.74,8.16,8.16,0,0,1,13.3,4.4a.2.2,0,0,1,.06.07.76.76,0,0,1-.11.14A53.36,53.36,0,0,0,8.52,10c-.18.24-.3.22-.51.07-1.33-.94-2.67-1.86-4-2.8-.24-.17-.37-.16-.56.06a10.87,10.87,0,0,1-1,1c-.19.18-.17.29,0,.49,2,2.74,4,5.47,5.75,8.36,0,.05,0,.12.14.13l.09-.12q2.24-3.84,4.77-7.49C13.89,8.63,14.56,7.65,15.32,6.73Z"/><path class="cls-2" d="M15.32,6.73c-.76.92-1.43,1.9-2.11,2.88q-2.54,3.64-4.77,7.49l-.09.12c-.09,0-.11-.08-.14-.13C6.45,14.2,4.45,11.47,2.46,8.73c-.14-.2-.16-.31,0-.49a10.87,10.87,0,0,0,1-1c.19-.22.32-.23.56-.06,1.32.94,2.66,1.86,4,2.8.21.15.33.17.51-.07a53.36,53.36,0,0,1,4.73-5.35.76.76,0,0,0,.11-.14c.71-.64,1.4-1.28,2.11-1.91A28.83,28.83,0,0,1,18.65.12.49.49,0,0,1,18.9,0h2.37L20.08,1.13a50.32,50.32,0,0,0-4.71,5.49A.37.37,0,0,0,15.32,6.73Z"/></g></g></svg>