<svg xmlns="http://www.w3.org/2000/svg" viewBox="0 0 333.6 436.1"><defs><style>.cls-1{fill:#fff;}</style></defs><g id="Layer_2" data-name="Layer 2"><g id="Layer_1-2" data-name="Layer 1"><path class="cls-1" d="M233.89,186.83a97.22,97.22,0,0,1,38.21,7.69,100.68,100.68,0,0,1,31.68,21,102.26,102.26,0,0,1,21.66,31.45,95.55,95.55,0,0,1,8.16,39.6,96.68,96.68,0,0,1-8.16,40.07,100,100,0,0,1-53.58,52.18,98,98,0,0,1-38,7.46H193.36V436.1H139.78V386.25H99.71a99.2,99.2,0,0,1-70.82-28.89A99.2,99.2,0,0,1,0,286.54H66.16A29.57,29.57,0,0,0,69,299.12a36.85,36.85,0,0,0,18.17,18.17,29.69,29.69,0,0,0,12.58,2.8l40.07-.47V253.46H99.71a99.71,99.71,0,0,1-39.84-7.92,96.46,96.46,0,0,1-31.68-21.67A100.59,100.59,0,0,1,7.45,192.19,99.11,99.11,0,0,1,0,153.75a97.87,97.87,0,0,1,7.92-39.6A99.07,99.07,0,0,1,29.35,82.7,100.78,100.78,0,0,1,61,61.73a98.24,98.24,0,0,1,38.67-7.68h40.07V0h53.58V54.05h40.53a98.66,98.66,0,0,1,37.74,7.45,99.36,99.36,0,0,1,53.81,52.18,96.75,96.75,0,0,1,8.16,40.07H267a32.77,32.77,0,0,0-3-14A33.68,33.68,0,0,0,256,128.83a39.84,39.84,0,0,0-10.71-7,28.22,28.22,0,0,0-11.42-2.56H193.36v67.55Zm-157-10.25A26.44,26.44,0,0,0,86.66,184a30.79,30.79,0,0,0,13,2.79h40.07V119.28H99.71a27.84,27.84,0,0,0-12.58,3,38.55,38.55,0,0,0-10.72,7.92A40.29,40.29,0,0,0,69,141.17a29.64,29.64,0,0,0-2.8,12.58,29.72,29.72,0,0,0,10.72,22.83ZM257.19,309.37a29.29,29.29,0,0,0,7-9.79,30.75,30.75,0,0,0,2.79-13q0-14.91-10.48-24t-22.6-9.08H193.36v66.63h40.53a26.88,26.88,0,0,0,12.11-3A49.41,49.41,0,0,0,257.19,309.37Z"/></g></g></svg>