<svg xmlns="http://www.w3.org/2000/svg" viewBox="0 0 96.86 74.48"><defs><style>.cls-1{fill:#F030C0;}</style></defs><g id="Layer_2" data-name="Layer 2"><g id="Layer_1-2" data-name="Layer 1"><path class="cls-1" d="M0,40.28a7.85,7.85,0,0,0,.64-2A12.32,12.32,0,0,1,12.39,29.9c2.39,0,4.78,0,7.18,0,.39,0,.73,0,.77.54a11.85,11.85,0,0,0,3.55,7.7,15.77,15.77,0,0,0-4.75,2.56,14.4,14.4,0,0,0-5.59,11.69c0,.29,0,.57,0,.86,0,1.95,0,2-2,1.83A31.94,31.94,0,0,1,.36,52.32,1.44,1.44,0,0,0,0,52.25ZM32.67,70.79a.88.88,0,0,0,.76,1C40.75,74,48.17,75.11,55.8,74.11a30.36,30.36,0,0,0,8.72-2.34c.38-.17.76-.29.75-.9,0-3.36,0-6.72,0-10.07A12.17,12.17,0,0,0,53.54,49.22c-3-.07-6.11-.06-9.17,0a12.23,12.23,0,0,0-11.28,9.07c-.63,2.44-.29,4.92-.4,7S32.72,69.08,32.67,70.79Zm4.55-30.94c-.09-.55-.38-.56-.77-.56-1.55,0-3.09,0-4.63,0a34.39,34.39,0,0,0-5.47.13A12.26,12.26,0,0,0,15.9,51.78c0,2.88,0,5.76,0,8.64,0,1,.31,1.37,1.24,1.63a62.6,62.6,0,0,0,12.49,2.38c.68,0,.86-.13.83-.8a27.24,27.24,0,0,1,0-3.13,14.3,14.3,0,0,1,5-10,15.63,15.63,0,0,1,5.29-3C38.17,44.4,37.84,43.71,37.22,39.85ZM81.09,51.8c-.1-6.42-4.22-11.41-10.45-12.36-3.11-.47-6.28-.1-9.43-.17-.47,0-.46.31-.48.63a11.31,11.31,0,0,1-3,7c-.57.61-.31.69.28.92a14.6,14.6,0,0,1,9,9.68,20,20,0,0,1,.55,6.4c0,.52.09.72.67.64,1.09-.15,2.2-.18,3.29-.32a31.66,31.66,0,0,0,8.9-2.36,1,1,0,0,0,.73-1.13c0-1.64,0-3.29,0-4.93C81.09,54.46,81.11,53.13,81.09,51.8ZM73.86,38.18a14.68,14.68,0,0,1,9,9.94A18.21,18.21,0,0,1,83.27,54c0,.86.25,1,1,.89,1-.16,2.13-.19,3.19-.33a30.53,30.53,0,0,0,8.69-2.36c.37-.16.69-.29.69-.86,0-3.35,0-6.7-.06-10A12.12,12.12,0,0,0,86.65,29.82c-3.19-.48-6.41-.1-9.62-.21-.37,0-.49.14-.52.48a12,12,0,0,1-3.57,7.74C73.34,38,73.61,38.07,73.86,38.18ZM48.56,20.83A10.42,10.42,0,1,0,38.12,10.46,10.39,10.39,0,0,0,48.56,20.83ZM49,29.31A9.6,9.6,0,0,0,49,48.5a9.6,9.6,0,0,0,0-19.19Zm-12.3,8.16a1.41,1.41,0,0,0,.77-1.08,9.7,9.7,0,0,1,3.12-5.7c1.42-1.18,1.29-2.42.91-3.86-.06-.22-.13-.43-.19-.64a9.53,9.53,0,1,0-4.61,11.28ZM6.85,21a16.28,16.28,0,0,0,.49,1.82,9.53,9.53,0,0,0,12.43,5.72.93.93,0,0,0,.67-.8,11.59,11.59,0,0,1,4.89-7.9,1,1,0,0,0,.48-1,9.62,9.62,0,0,0-10.12-8.8,9.66,9.66,0,0,0-8.93,9.71A8.9,8.9,0,0,0,6.85,21Zm67,5.13A9.61,9.61,0,0,0,64,19.43a9.75,9.75,0,0,0-8.73,8.67,1.13,1.13,0,0,0,.52,1.18,10.14,10.14,0,0,1,4.53,6.61c.31,1.92,1.4,2.36,2.93,2.57l1.49.17A9.62,9.62,0,0,0,73.87,26.17Zm7-16.42a9.66,9.66,0,0,0-9.82,8.62,1.23,1.23,0,0,0,.6,1.32,11.44,11.44,0,0,1,4.73,7.69,1.1,1.1,0,0,0,.85,1A9.59,9.59,0,1,0,80.87,9.75ZM22.09,8.9a.81.81,0,0,0,.35,1.15,10.76,10.76,0,0,1,4.86,7.47c.16,1,.48.87,1.17.62a10.17,10.17,0,0,1,8.49.47c.61.31.83,0,1.16-.34s.5-.66.15-1.2A11.88,11.88,0,0,1,37.08,5.61c.2-.5.06-.71-.31-1a9,9,0,0,0-5.26-2A9.57,9.57,0,0,0,22.09,8.9Zm46.26,9.15c.56.19.75,0,.83-.53a11,11,0,0,1,5.67-8.26c.42-.24.48-.43.29-.89a9.8,9.8,0,0,0-3-3.84,9.43,9.43,0,0,0-12,.48c-.28.26-.62.45-.42,1a11.87,11.87,0,0,1-1.06,10.63c-.49.83.38,1.06.61,1.57s.59.27.94.12a10.65,10.65,0,0,1,4.56-.89A10.15,10.15,0,0,1,68.35,18.05ZM55,22.78c.61-1,.61-1.05-.57-1.12-3.71-.25-7.42-.16-11.13-.06a4.09,4.09,0,0,0-1.89.31,11.69,11.69,0,0,1,2.08,6.48,11.45,11.45,0,0,1,10-.47A11.53,11.53,0,0,1,55,22.78Z"/></g></g></svg>