<svg xmlns="http://www.w3.org/2000/svg" viewBox="0 0 116.94 100.82"><defs><style>.cls-1{fill:#fff;}</style></defs><g id="Layer_2" data-name="Layer 2"><g id="Layer_1-2" data-name="Layer 1"><path class="cls-1" d="M43,100.82V94.06H54.93v-6.8H10.2C3.72,87.26,0,83.54,0,77.06V9.86C0,5,2.57,1.4,6.89.31a12.36,12.36,0,0,1,3-.3h97.2c6.08,0,9.87,3.8,9.87,9.86q0,33.8,0,67.58c0,6-3.85,9.81-9.81,9.82H62V94H73.9v6.81ZM6.86,63.92H110.08V10.21c0-2.64-.69-3.33-3.33-3.33H10.19c-2.64,0-3.33.69-3.33,3.33V63.92ZM7,71a1.85,1.85,0,0,0-.14.41c0,1.78,0,3.56,0,5.35,0,3,.6,3.6,3.59,3.6h96a11.54,11.54,0,0,0,1.44,0,2.08,2.08,0,0,0,2.08-2c.1-2.42,0-4.84,0-7.34Z"/></g></g></svg>