<svg xmlns="http://www.w3.org/2000/svg" viewBox="0 0 131.76 103.01"><defs><style>.cls-1{fill:#fff;}</style></defs><g id="Layer_2" data-name="Layer 2"><g id="Layer_1-2" data-name="Layer 1"><path class="cls-1" d="M70.44,103c-1.38-.44-2.5-.77-3.61-1.15-5.2-1.78-10.39-3.62-15.61-5.34a2,2,0,0,1-1.62-2.25q0-46.26-.14-92.52c0-.55.06-1.09.09-1.59C49.8.07,49.93,0,50,0,60.65,3.06,71.32,6,81.88,9.26a33.05,33.05,0,0,1,13.64,8.36,25.85,25.85,0,0,1,7.67,17.07,39.82,39.82,0,0,1-1.82,15.91c-2.61,7.48-8.19,10.68-16,9-6.15-1.3-6.15-1.3-6.15-7.4,0-9.76,0-19.52,0-29.28a6.43,6.43,0,0,0-3.44-6c-2.36-1.36-4.6-.32-5.07,2.35a19.82,19.82,0,0,0-.16,3.18l-.15,78.08Zm6.88-23c7.21-2.48,14.4-5,21.64-7.4A19.47,19.47,0,0,1,109.68,72,8.15,8.15,0,0,1,112,73.57c-.59.74-1,1.76-1.79,2.15a54.38,54.38,0,0,1-6,2.53c-9.32,3.43-18.66,6.82-28,10.27-.61.22-1.51.85-1.53,1.31-.12,3.84-.07,7.69-.07,11.79l4.3-1.53c14.51-5.28,29-10.49,43.5-15.9a24.83,24.83,0,0,0,7-4.21c2.92-2.41,3.12-4.89.51-7.59a22,22,0,0,0-6.52-4.54c-5.21-2.41-10.88-3.17-16.54-3.94C96.22,62.47,86,64,75.9,67.58c-.5.17-1.22.75-1.22,1.15-.1,4-.06,8-.06,12.27ZM32.88,83c-3.48,1.22-7,.72-10.59.46a3.3,3.3,0,0,1-1.52-.68c-1.06-.76-1.16-1.64,0-2.37A17.88,17.88,0,0,1,23.63,79c6.65-2.55,13.32-5,20-7.62.61-.23,1.52-.84,1.54-1.3.12-3.85.07-7.71.07-11.69a9,9,0,0,0-1.3.23C32.51,62.75,21.08,66.8,9.74,71.06a32,32,0,0,0-7.33,4.1C-.77,77.47-.78,81.51,2.24,84a14.06,14.06,0,0,0,4.12,2.52c3.59,1.25,7.25,2.32,10.93,3.27a54.44,54.44,0,0,0,26.18.56c.53-.12,1.32-.84,1.33-1.3.12-3.3.06-6.6.06-10.19Z"/></g></g></svg>