<svg xmlns="http://www.w3.org/2000/svg" viewBox="0 0 96.86 67.2"><defs><style>.cls-1{fill:#F030C0;}</style></defs><g id="Layer_2" data-name="Layer 2"><g id="Layer_1-2" data-name="Layer 1"><path class="cls-1" d="M31.31,33.94a10,10,0,0,0-7.37-3.53c-3.13-.06-6.27-.06-9.4,0a11.11,11.11,0,0,0-10.61,11c0,1.31.11,2.63-.05,3.92a2.35,2.35,0,0,0,1.9,2.91c2.66.79,5.29,1.64,8,2.36,1.57.42,2.32,1.18,2.09,2.48S14.61,54.9,13,54.63A37.58,37.58,0,0,1,1.4,50.57,2.54,2.54,0,0,1,.11,48.89a60.45,60.45,0,0,1,.13-9.13A14.9,14.9,0,0,1,9.6,27.3c.29-.13.57-.28.86-.42C5.14,19,5.28,12.42,10.86,7.1a12,12,0,0,1,16.55,0c5.55,5.18,5.69,11.73.37,19.81a16.08,16.08,0,0,1,6.67,4.53.92.92,0,0,0,.81.17c1-.33,2-.73,3.11-1.18-4.3-4.07-6.64-8.92-6.09-15A16.92,16.92,0,0,1,37.73,4.38a15.28,15.28,0,0,1,21.51.09,16.88,16.88,0,0,1,5.43,13.15,17.49,17.49,0,0,1-6.21,12.79c1.19.46,2.16.87,3.15,1.2a.89.89,0,0,0,.81-.17,16.26,16.26,0,0,1,6.79-4.57c-2.95-3.25-4.56-6.93-4-11.36a13.37,13.37,0,0,1,4.48-8.58,12,12,0,0,1,16.44.25c5.53,5.36,5.64,12.08.38,19.56a40.16,40.16,0,0,1,4.6,2.86,15.34,15.34,0,0,1,5.76,12.16c0,2.18,0,4.36,0,6.54a2.31,2.31,0,0,1-1.34,2.3,39.91,39.91,0,0,1-11.5,4c-1.73.3-2.73-.2-3-1.49s.54-2,2.33-2.56c2.89-.81,5.72-1.8,8.58-2.72a1.35,1.35,0,0,0,1-1.6,63.6,63.6,0,0,0-.29-6.5,10.73,10.73,0,0,0-10.47-9.32c-3.09-.06-6.18-.05-9.26,0a10.31,10.31,0,0,0-7.44,3.53,21.16,21.16,0,0,1,6,7.93,22.22,22.22,0,0,1,1.71,8.6c0,2.66,0,5.32,0,8a2.68,2.68,0,0,1-1.57,2.76q-23.36,12-46.65-.11a2.78,2.78,0,0,1-1.41-1.9A112.55,112.55,0,0,1,24,46.6a18.52,18.52,0,0,1,6.64-12Zm17.2.44v-.23c-2.12,0-4.24-.08-6.35,0-5.32.24-9.36,2.83-12.3,7.44-2.24,3.5-2.41,7.44-2.34,11.44,0,1.59-.45,3.56.28,4.66s2.65,1.58,4.1,2.15c12.32,4.79,24.46,4.23,36.42-1.43a1.62,1.62,0,0,0,1.08-1.76c-.08-2.27-.08-4.54-.09-6.82,0-7.63-5.34-14.33-12.52-15.4C54.07,34,51.27,34.38,48.51,34.38ZM60.81,17c0-7-5.71-13-12.39-12.94s-12.36,6-12.35,13,5.75,13,12.39,13S60.82,24,60.81,17Zm17,9.21a9,9,0,0,0,8.75-9.13A8.78,8.78,0,1,0,69,17,9.1,9.1,0,0,0,77.76,26.25Zm-58.65,0A9.09,9.09,0,0,0,27.91,17a9.1,9.1,0,0,0-8.76-9.14,9,9,0,0,0-8.78,9.25A9,9,0,0,0,19.11,26.25Z"/></g></g></svg>