<svg xmlns="http://www.w3.org/2000/svg" viewBox="0 0 192.14 192.91"><defs><style>.cls-1{fill:#fff;}</style></defs><g id="Layer_2" data-name="Layer 2"><g id="Layer_1-2" data-name="Layer 1"><path class="cls-1" d="M192.11,110.18q0,32.08,0,64.15c0,9.45-4.83,16-13.23,18.1a18.59,18.59,0,0,1-4.47.44q-61.89,0-123.79,0c-26,0-48.29-20.34-50.41-45.8C-2,120.06,15.81,96.51,42.09,92c2.41-.41,3.08-1.32,3.07-3.67q-.12-35.1,0-70.18c0-9.19,4.95-15.7,13.3-17.7a19.67,19.67,0,0,1,4.48-.4q42.16,0,84.33,0a8.39,8.39,0,0,1,6.43,2.61q17.72,17.84,35.58,35.54a9.85,9.85,0,0,1,2.89,7.58C192.08,67.21,192.11,88.7,192.11,110.18Zm-89.79,26.18h55.32a21.54,21.54,0,0,1,3,.08,5.64,5.64,0,0,1-.23,11.21,24.51,24.51,0,0,1-2.71,0H101.39c-1.85,13.52-7.84,24.54-18.52,33.86h89.78c6.38,0,8-1.64,8-8q0-60.39,0-120.79c0-1.17-.11-2.34-.18-3.78H150.46c-5.52,0-7.4-1.88-7.42-7.42,0-8.94-.09-17.88.05-26.81,0-2.53-.5-3.47-3.29-3.45-25.4.11-50.81.06-76.21.07-5.15,0-7.13,1.92-7.14,7.07,0,23.4,0,46.79-.05,70.19,0,2.12.62,3,2.78,3.31a50.58,50.58,0,0,1,21.5,8.9,9.2,9.2,0,0,0,4.92,1.57c23.9.1,47.8.06,71.69.07,1,0,2-.06,3,0a5.64,5.64,0,0,1,.16,11.24,25.12,25.12,0,0,1-3,.06H94.16Zm-12,6c.25-21.56-17.35-39.62-38.83-39.83a39.53,39.53,0,1,0,38.83,39.83Zm81-104.69L154.42,20.81c0,5,0,10.26.06,15.52a1.85,1.85,0,0,0,1.3,1.26C161.05,37.68,166.32,37.65,171.28,37.65Z"/><path class="cls-1" d="M118.57,79.91H79.41a17.27,17.27,0,0,1-3.3-.16,5.6,5.6,0,0,1,.43-11.07,16.53,16.53,0,0,1,2.11-.06h79.84c.5,0,1,0,1.5,0,3.3.22,5.55,2.46,5.59,5.54a5.47,5.47,0,0,1-5.43,5.68c-3.71.17-7.43.06-11.15.06Z"/><path class="cls-1" d="M42.65,150.67,63,130.12c.7-.71,1.39-1.44,2.14-2.11,2.55-2.27,5.94-2.29,8.12-.08s2.24,5.64-.39,8.31c-6.75,6.86-13.6,13.64-20.4,20.45-1.71,1.71-3.37,3.45-5.12,5.1-2.86,2.7-6,2.77-8.79.08q-5.41-5.24-10.64-10.65c-2.54-2.63-2.56-6.05-.24-8.31s5.74-2.1,8.33.48C38.17,145.57,40.18,148,42.65,150.67Z"/></g></g></svg>