<svg xmlns="http://www.w3.org/2000/svg" viewBox="0 0 158.41 126.77"><defs><style>.cls-1{fill:#fff;}</style></defs><g id="Layer_2" data-name="Layer 2"><g id="Layer_1-2" data-name="Layer 1"><path class="cls-1" d="M102.87,126.62H55.43v-2.39q0-58,0-116a3.94,3.94,0,0,1,1.89-3.65A23,23,0,0,1,70.1.08C76.25,0,82.4,0,88.54.1a21.34,21.34,0,0,1,13,4.93,3.78,3.78,0,0,1,1.3,2.59q.09,58.76,0,117.51C102.94,125.54,102.9,126,102.87,126.62Zm15.91-85.2q0,41.64,0,83.28c0,1.57.44,2.07,2,2.06,9.74-.07,19.49,0,29.24-.05,5,0,8.28-3.19,8.3-8.21.06-18.51.17-37,0-55.52C158.15,51,149.92,41.52,138,40c-6.24-.78-12.65-.14-19.11-.14C118.88,40.32,118.78,40.87,118.78,41.42ZM39.65,57.74c0-1.92-.58-2.39-2.4-2.34-4.38.13-8.76,0-13.14.05C10.22,55.62.11,65.76,0,79.68,0,92.4,0,105.12,0,117.84c0,5.8,3.11,8.87,8.94,8.88,9.39,0,18.79,0,28.18,0,1.93,0,2.51-.5,2.5-2.47-.09-11.09,0-22.19,0-33.28S39.56,68.83,39.65,57.74Z"/></g></g></svg>