<svg xmlns="http://www.w3.org/2000/svg" viewBox="0 0 96.86 96.86"><defs><style>.cls-1{fill:#F030C0;}</style></defs><g id="Layer_2" data-name="Layer 2"><g id="Layer_1-2" data-name="Layer 1"><path class="cls-1" d="M69.05,66.53c-.75-.12-1-.66-1.41-1L22,19.87c-.39-.4-.78-.81-1.21-1.18a1.4,1.4,0,0,0-2.07,0,1.38,1.38,0,0,0,0,2.06c.4.47.85.9,1.29,1.33L65.48,67.58c.38.38.9.67,1.09,1.39-1.9.24-3,1.61-4.18,2.89-.77.85-1.25.8-2.11.08Q43.12,57.44,25.88,43c-7.66-6.43-15.3-12.89-23-19.26A5.29,5.29,0,0,1,.69,19.35C.6,13.75.29,8.16.07,2.57,0,.36.41-.07,2.6,0,8.4.23,14.19.51,20,.65a4.23,4.23,0,0,1,3.41,1.66Q41.89,24.46,60.45,46.56q5.49,6.54,11,13.09c1.42,1.69,1.43,1.7-.1,3.2C70.27,63.9,69.16,64.9,69.05,66.53Z"/><path class="cls-1" d="M96.13,11.34c0,3,0,6.05,0,9.07A3,3,0,0,1,95,22.93Q80.22,35.28,65.51,47.68c-.77.64-1.16.48-1.72-.22-1.51-1.87-3-3.74-4.66-5.52-.8-.88-.76-1.4.09-2.23C65.13,33.87,71,28,76.86,22.1L78,21c.69-.71,1-1.51.23-2.3s-1.57-.56-2.3.15l-1.2,1.19Q66,28.75,57.3,37.49c-.82.83-1.24.84-2-.08-1.55-2-3.18-3.9-4.84-5.79a1.16,1.16,0,0,1,0-1.82Q62.29,15.79,74,1.74a2.86,2.86,0,0,1,2.27-1c6-.22,12.1-.47,18.15-.69,2-.08,2.41.4,2.39,2.4,0,3,0,5.95,0,8.93Z"/><path class="cls-1" d="M6.84,96.85A6.82,6.82,0,0,1,.7,92.69,6.59,6.59,0,0,1,2,85c3.74-3.88,7.56-7.68,11.42-11.44.94-.92,1.11-1.44.06-2.4C11.31,69.17,9.31,67,7.23,65a3.52,3.52,0,0,1-1.11-2.29c-.23-2.14-.57-4.27-.77-6.42-.15-1.61.45-2.18,2.07-2,2.2.23,4.38.53,6.57.79a3,3,0,0,1,1.88.93c3,3,6,6.06,9,9,1.19,1.16,1,2.64,1.17,4,.12,1.21.56,1.76,1.78,1.74a6.86,6.86,0,0,1,5.44,2.6c2.3,2.55,4.83,4.89,7.25,7.33.33.32.8.64.9,1a42.21,42.21,0,0,1,1.13,8.66c0,.87-.78,1.29-1.67,1.19q-3.75-.43-7.48-.92a2.82,2.82,0,0,1-1.52-1c-2.06-2.08-4.2-4.09-6.18-6.24-1-1-1.49-.88-2.4.06-3.57,3.69-7.25,7.27-10.85,10.92A7.67,7.67,0,0,1,6.84,96.85Z"/><path class="cls-1" d="M91.56,56.34l-.88,7A2.93,2.93,0,0,1,89.63,65c-2.14,2.14-4.25,4.31-6.43,6.41-.74.71-.71,1.13,0,1.84Q89,78.92,94.64,84.68a7,7,0,1,1-9.8,10.08Q79.1,89.18,73.53,83.42c-1-1-1.51-.89-2.41.06-2,2.1-4,4.08-6.07,6.11-.4.4-.77.91-1.35,1-2.64.36-5.28.72-7.93,1-1.08.1-1.62-.67-1.51-1.69.26-2.5.6-5,.92-7.48a2.68,2.68,0,0,1,1-1.52c2.54-2.54,5.16-5,7.58-7.65A6.58,6.58,0,0,1,69,70.78c1.28,0,1.88-.5,1.84-1.81a6.65,6.65,0,0,1,2.52-5.32c2.62-2.38,5-5,7.53-7.49a3.17,3.17,0,0,1,2-1.09c2.25-.26,4.48-.59,6.72-.82C91.05,54.09,91.61,54.66,91.56,56.34Z"/><path class="cls-1" d="M29.8,68.9c1.66-1.55,3-2.77,4.33-4.05C36.1,62.92,38,61,40,59c.44-.44.78-.92,1.5-.29,1.53,1.36,3.11,2.66,4.7,3.95.66.53.44.86-.1,1.3-3.26,2.72-6.52,5.44-9.74,8.21-.68.58-1.07.47-1.64-.11C33.45,70.75,32.32,69.23,29.8,68.9Z"/><path class="cls-1" d="M27.92,66.91c-.25-2.32-1.68-3.4-2.93-4.58-.73-.69-.87-1.14-.14-2,2.36-2.69,4.65-5.45,6.91-8.22.6-.73,1-.79,1.72-.16,1.4,1.27,2.87,2.47,4.33,3.67.47.38.67.66.13,1.19C34.69,60.07,31.46,63.34,27.92,66.91Z"/></g></g></svg>