<svg xmlns="http://www.w3.org/2000/svg" viewBox="0 0 102.92 103.01"><defs><style>.cls-1{fill:#fff;}</style></defs><g id="Layer_2" data-name="Layer 2"><g id="Layer_1-2" data-name="Layer 1"><path class="cls-1" d="M52.5,103c-14.62-.23-26.44-4.88-36.44-14.14a1.65,1.65,0,0,1-.55-1.7q5-29.61,29.27-47.21c1.89-1.36,3.95-2.49,5.91-3.76a1.34,1.34,0,0,1,1.57,0A70.87,70.87,0,0,1,78.18,61.52a71.72,71.72,0,0,1,9.27,25.65,1.67,1.67,0,0,1-.55,1.71,51,51,0,0,1-27.76,13.48C56.61,102.73,54,102.86,52.5,103Zm-.62-4.94c.8,0,2-.09,3.17-.17.68-.05,1.37-.13,2.05-.21A45.51,45.51,0,0,0,81.65,86.9a1.67,1.67,0,0,0,.49-1.33Q76.37,57.46,52.22,41.93a1.21,1.21,0,0,0-1.53,0c-15.9,10.19-25.78,24.54-29.8,43a2.16,2.16,0,0,0,.93,2.49A46.92,46.92,0,0,0,51.88,98.07Z"/><path class="cls-1" d="M39.87,30.27C21.59,42.64,11.82,60,9.64,82a5.06,5.06,0,0,1-.53-.57C4.8,73.94,1.23,66.17.31,57.38A51.75,51.75,0,0,1,13.88,16.26a1.1,1.1,0,0,1,1.38-.35A73.05,73.05,0,0,1,39.51,29.84,4.27,4.27,0,0,1,39.87,30.27Zm-8-.16c-.3-.25-.47-.41-.65-.54A68.56,68.56,0,0,0,17,21.8a1.37,1.37,0,0,0-1.9.55,46.13,46.13,0,0,0-9.79,35.2c.36,3,1.18,5.89,1.79,8.83h.43A70.84,70.84,0,0,1,31.82,30.11Z"/><path class="cls-1" d="M63,30.24A74.6,74.6,0,0,1,74.4,22a73.56,73.56,0,0,1,13.15-6,1.24,1.24,0,0,1,1.57.37A51.13,51.13,0,0,1,102.9,53.25,50.41,50.41,0,0,1,96.52,76.4c-.8,1.47-1.58,3-2.38,4.45a2.93,2.93,0,0,1-.71.92c-1.31-10.34-3.88-20.23-9.19-29.26A68,68,0,0,0,63,30.24ZM95.41,66.37c.17-.18.25-.23.27-.29.13-.36.25-.72.36-1.09a45.87,45.87,0,0,0,1.62-19.31A46.37,46.37,0,0,0,87.53,22a.91.91,0,0,0-1.26-.33c-1.5.67-3,1.26-4.53,2a61.65,61.65,0,0,0-10.61,6.39A71.13,71.13,0,0,1,95.41,66.37Z"/><path class="cls-1" d="M20.88,9.67C41.16-3.53,62.7-2.94,82.17,9.76c-1.89.36-3.62.7-5.36,1A66.23,66.23,0,0,0,52.3,20.39c-.43.29-.78.63-1.41.21-8.61-5.71-18.15-8.9-28.29-10.48C22.07,10,21.55,9.91,21,9.8,21,9.8,21,9.76,20.88,9.67ZM35.19,7.84c.44.18.62.29.82.35a71,71,0,0,1,14.87,6.58,1.81,1.81,0,0,0,1.41-.12c3.21-1.53,6.37-3.17,9.6-4.64,1.82-.83,3.75-1.4,5.87-2.18A48.07,48.07,0,0,0,35.19,7.84Z"/><path class="cls-1" d="M51.88,98.07A46.92,46.92,0,0,1,21.82,87.4a2.16,2.16,0,0,1-.93-2.49c4-18.43,13.9-32.78,29.8-43a1.21,1.21,0,0,1,1.53,0Q76.41,57.43,82.14,85.57a1.67,1.67,0,0,1-.49,1.33A45.51,45.51,0,0,1,57.1,97.69c-.68.08-1.37.16-2.05.21C53.86,98,52.68,98,51.88,98.07Z"/><path class="cls-1" d="M31.82,30.11A70.84,70.84,0,0,0,7.55,66.39H7.12c-.61-2.94-1.43-5.86-1.79-8.83a46.13,46.13,0,0,1,9.79-35.2A1.37,1.37,0,0,1,17,21.8a68.56,68.56,0,0,1,14.15,7.77C31.35,29.7,31.52,29.86,31.82,30.11Z"/><path class="cls-1" d="M95.41,66.37A71.13,71.13,0,0,0,71.13,30.05a61.65,61.65,0,0,1,10.61-6.39c1.49-.71,3-1.3,4.53-2a.91.91,0,0,1,1.26.33A46.37,46.37,0,0,1,97.66,45.68,45.87,45.87,0,0,1,96,65c-.11.37-.23.73-.36,1.09C95.66,66.14,95.58,66.19,95.41,66.37Z"/><path class="cls-1" d="M35.19,7.84a48.07,48.07,0,0,1,32.57,0c-2.12.78-4.05,1.35-5.87,2.18-3.23,1.47-6.39,3.11-9.6,4.64a1.81,1.81,0,0,1-1.41.12A71,71,0,0,0,36,8.19C35.81,8.13,35.63,8,35.19,7.84Z"/></g></g></svg>